<?xml version="1.0" standalone="no"?><!DOCTYPE svg PUBLIC "-//W3C//DTD SVG 1.1//EN" "http://www.w3.org/Graphics/SVG/1.1/DTD/svg11.dtd"><svg t="1768786842135" class="icon" viewBox="0 0 1024 1024" version="1.1" xmlns="http://www.w3.org/2000/svg" p-id="2485" xmlns:xlink="http://www.w3.org/1999/xlink" width="200" height="200"><path d="M223.3 466.8c18.2 0.3 33-14.3 33-32.4V256.8h177.6c18.1 0 32.7-14.8 32.4-33-0.3-17.8-15.2-31.9-33-31.9H223.1c-17.5 0-31.7 14.2-31.7 31.7v210.2c0 17.9 14.1 32.7 31.9 33zM433.8 767.2H256.3V589.6c0-18.1-14.8-32.7-33-32.4-17.8 0.3-31.9 15.2-31.9 33v210.2c0 17.5 14.2 31.7 31.7 31.7h210.2c17.8 0 32.7-14.1 33-31.9 0.2-18.2-14.4-33-32.5-33zM800.7 557.2c-18.2-0.3-33 14.3-33 32.4v177.6H590.2c-18.1 0-32.7 14.8-32.4 33 0.3 17.8 15.2 31.9 33 31.9H801c17.5 0 31.7-14.2 31.7-31.7V590.2c-0.1-17.9-14.2-32.7-32-33zM800.9 192H590.7c-17.8 0-32.7 14.1-33 31.9-0.3 18.2 14.3 33 32.4 33h177.6v177.6c0 18.1 14.8 32.7 33 32.4 17.8-0.3 31.9-15.2 31.9-33V223.7c0-17.5-14.2-31.7-31.7-31.7z" fill="#00A5FF" p-id="2486"></path><path d="M679.6 597.2c0-66-37.4-90.9-90.9-107.9 66.3-30.8 56.6-88.6 56.6-88.6 0-32.7-20-100.9-107.5-105.7H407.5c-22.4 0-40.6 18.2-40.6 40.6V685.4c0 22.1 17.9 40.1 40.1 40.1h141.2c0.1 0.2 0.1 0.4 0.1 0.4s131.3 4.6 131.3-128.7zM454.3 370.7H512c8.1 0 42.8 10.4 42.8 46.6 0 40.8-42.8 45.5-42.8 45.5h-57.8v-92.1z m83.9 274.7c-0.7 0.3-1.4 0.8-1.9 1.3h-82V542.5h81.4c-0.1 0.2-0.1 0.4-0.1 0.4s49.7 6.2 49.7 49.7c-0.1 40.1-31.3 46.2-47.1 52.8z" fill="#00A5FF" p-id="2487"></path></svg>