<?xml version="1.0" standalone="no"?><!DOCTYPE svg PUBLIC "-//W3C//DTD SVG 1.1//EN" "http://www.w3.org/Graphics/SVG/1.1/DTD/svg11.dtd"><svg t="1769059194130" class="icon" viewBox="0 0 1024 1024" version="1.1" xmlns="http://www.w3.org/2000/svg" p-id="2845" width="64" height="64" xmlns:xlink="http://www.w3.org/1999/xlink"><path d="M511.96976 0a511.96976 511.96976 0 1 0 512.06576 511.96976A511.96976 511.96976 0 0 0 511.96976 0z m253.344871 328.80113a22.848079 22.848079 0 0 1-18.912065 19.776068l-94.080324 15.840055V599.042059a90.528311 90.528311 0 0 0 9.984035 41.088141l58.848202 112.992389a19.584067 19.584067 0 0 1-17.47206 28.320097h-50.016172a19.200066 19.200066 0 0 1-17.56806-10.272035l-58.560202-110.016378a89.568308 89.568308 0 0 1-10.560036-42.240145V378.817302l-132.000454 22.080076v325.441119a31.87211 31.87211 0 0 1-14.208049 26.20809L384.00132 776.258668a23.040079 23.040079 0 0 1-35.616122-19.200066v-341.761174l-96.384332 16.128055a22.848079 22.848079 0 0 1-26.30409-25.440087l5.088017-41.184142a22.848079 22.848079 0 0 1 19.008066-19.776068l494.017698-82.848285a22.848079 22.848079 0 0 1 26.592091 25.440088z" fill="#DA282A" p-id="2846"></path></svg>